# xmcd
#
# Track frame offsets:
#	150
#	15903
#	27999
#	44929
#	65051
#	77433
#	89532
#	105436
#	116944
#	131258
#	143438
#	159633
#	172921
#	185467
#	197433
#	212046
#	227850
#	247533
#	262327
#	283993
#
# Disc length: 3950 seconds
#
# Revision: 1
# Processed by: cddbd v1.5.2PL0 Copyright (c) Steve Scherf et al.
# Submitted via: audiograbber 1.83.01
#
DISCID=160f6c14
DTITLE=Divers - Country Top 40 CD 1
DYEAR=1900
DGENRE=Country
TTITLE0=John Denver - Thank God I'm A Country Boy (live)
TTITLE1=Tammy Wynette - Stand By Your Man
TTITLE2=Johnny Cash - A Boy Named Sue (live)
TTITLE3=Shania Twain - That Don't Impress Me Much
TTITLE4=Charlie Rich - The Most Beautiful Girl
TTITLE5=Dolly Parton - Jolene
TTITLE6=Willie Nelson - Always on My Mind
TTITLE7=Crystal Gale - Don't It Make My Brown Eyes Blue
TTITLE8=Glenn Campbell - Rhinestone Cowboy
TTITLE9=Anne Murray - Walk Right Back
TTITLE10=Charlie Daniels Band - The Devil Went Down To Georgia
TTITLE11=Lynn Anderson - ( I Never Promised You A ) Rose Garden
TTITLE12=Roy Orbison - Crying
TTITLE13=Guy Mitchell - Heartaches By The Numbers
TTITLE14=Lorne Green - Ringo
TTITLE15=Nitty Gritty Dirt Band - An American Dream
TTITLE16=Marty Robbins - El Paso
TTITLE17=Rosanne Cash - Seven Year Ache
TTITLE18=Michael Murphey - Wildfire
TTITLE19=Johnny Cash and June Carter - Jackson
EXTD=
EXTT0=
EXTT1=
EXTT2=
EXTT3=
EXTT4=
EXTT5=
EXTT6=
EXTT7=
EXTT8=
EXTT9=
EXTT10=
EXTT11=
EXTT12=
EXTT13=
EXTT14=
EXTT15=
EXTT16=
EXTT17=
EXTT18=
EXTT19=
PLAYORDER=
